<?xml version="1.0" standalone="no"?>
<!DOCTYPE svg PUBLIC "-//W3C//DTD SVG 20010904//EN"
 "http://www.w3.org/TR/2001/REC-SVG-20010904/DTD/svg10.dtd">
<svg version="1.0" xmlns="http://www.w3.org/2000/svg"
 width="1024.000000pt" height="1024.000000pt" viewBox="0 0 1024.000000 1024.000000"
 preserveAspectRatio="xMidYMid meet">

<g transform="translate(0.000000,1024.000000) scale(0.100000,-0.100000)"
fill="#000000" stroke="none">
<path d="M0 5120 l0 -5120 5120 0 5120 0 0 5120 0 5120 -5120 0 -5120 0 0
-5120z m5425 3764 c414 -61 839 -291 1109 -599 253 -290 413 -622 472 -985 21
-126 21 -411 1 -545 -35 -225 -116 -470 -219 -665 -67 -126 -266 -443 -447
-713 -80 -120 -254 -384 -386 -587 -238 -367 -608 -918 -654 -972 -57 -69
-175 -104 -267 -79 -87 24 -104 44 -419 525 -165 251 -424 645 -575 875 -485
738 -533 813 -606 957 -82 163 -153 370 -184 531 -85 450 1 973 221 1341 314
524 877 878 1481 931 127 12 340 5 473 -15z m-3595 -6174 l0 -110 -205 0 -205
0 0 -540 0 -540 -115 0 -115 0 0 540 0 540 -200 0 -200 0 0 110 0 110 520 0
520 0 0 -110z m2890 -265 l0 -375 112 128 c62 70 141 160 177 200 l64 72 120
0 c74 0 117 -4 115 -10 -1 -5 -76 -98 -166 -205 l-164 -195 100 -143 c54 -78
138 -199 186 -269 l87 -128 -134 0 -134 0 -128 195 c-70 108 -130 195 -134
193 -3 -2 -28 -26 -54 -54 l-47 -51 0 -142 0 -141 -110 0 -110 0 0 650 0 650
110 0 110 0 0 -375z m1038 323 c11 -29 87 -228 170 -443 82 -214 157 -412 167
-440 20 -54 35 -78 35 -55 0 8 85 233 189 500 l189 485 131 3 131 3 0 -651 0
-651 -107 3 -108 3 0 427 c0 234 -1 425 -3 423 -2 -1 -47 -112 -102 -246 -54
-134 -132 -325 -172 -424 l-74 -180 -84 0 -85 0 -26 65 c-15 36 -91 223 -169
415 -78 193 -144 352 -146 354 -3 3 -4 -184 -4 -415 l1 -419 -106 -3 -105 -3
0 651 0 650 129 0 130 0 19 -52z m2500 -185 l3 -123 99 0 100 0 0 -96 0 -95
-100 3 -100 3 0 -248 c0 -275 4 -296 61 -316 18 -6 56 -11 85 -11 l54 0 0 -86
0 -86 -138 4 c-130 3 -141 5 -178 29 -23 16 -51 48 -69 80 l-30 54 -3 288 -3
287 -75 0 -74 0 0 95 0 95 75 0 75 0 0 125 0 126 108 -3 107 -3 3 -122z
m-5224 -114 c62 -12 142 -52 183 -91 17 -17 42 -54 55 -82 22 -50 23 -59 26
-413 l3 -363 -105 0 -106 0 0 65 0 65 -34 -38 c-91 -100 -256 -135 -406 -87
-63 21 -114 66 -144 128 -75 153 -22 316 122 380 84 38 144 47 308 47 l144 0
0 58 c0 115 -54 167 -175 166 -78 0 -120 -17 -154 -60 -12 -15 -21 -35 -21
-45 0 -17 -9 -19 -106 -19 l-107 0 7 41 c14 90 80 175 169 219 93 46 205 55
341 29z m1026 -10 c108 -37 201 -123 249 -230 38 -83 37 -84 -86 -81 l-108 4
-21 41 c-13 28 -37 52 -68 72 -41 25 -58 29 -115 29 -99 0 -160 -40 -204 -134
-18 -38 -22 -64 -22 -161 0 -109 2 -119 30 -174 44 -86 94 -119 188 -123 96
-5 149 22 192 96 l30 51 108 1 c127 0 126 1 72 -107 -76 -153 -214 -233 -401
-233 -249 0 -417 158 -444 416 -25 244 74 440 265 525 90 40 232 43 335 8z
m3480 4 c110 -30 171 -78 212 -168 22 -49 23 -59 26 -412 l4 -363 -106 0 -106
0 0 63 0 63 -51 -48 c-82 -76 -198 -108 -325 -88 -82 13 -130 37 -176 88 -53
58 -71 115 -67 210 5 102 39 161 119 210 83 49 110 54 309 59 l184 5 -5 68
c-9 115 -57 155 -185 153 -84 -1 -132 -26 -158 -80 l-20 -42 -104 -1 -104 0 7
42 c9 56 52 132 95 170 100 88 284 117 451 71z m-5160 -88 l0 -105 -43 0
c-113 0 -222 -68 -246 -155 -7 -25 -11 -145 -11 -317 l0 -278 -115 0 -115 0 0
470 0 470 100 0 100 0 0 -81 0 -81 33 48 c61 91 136 133 240 134 l57 0 0 -105z
m6832 67 c157 -77 244 -224 250 -422 l3 -85 -334 -3 -334 -2 7 -41 c19 -119
109 -199 223 -199 72 0 130 25 170 74 l30 37 111 -3 112 -3 -28 -60 c-38 -78
-130 -165 -209 -196 -90 -34 -241 -38 -334 -9 -165 53 -274 190 -300 376 -31
222 55 425 219 521 74 43 118 53 237 50 102 -2 116 -5 177 -35z"/>
<path d="M4930 8195 c-271 -45 -491 -157 -686 -350 -160 -157 -263 -335 -321
-552 -24 -89 -26 -116 -27 -283 0 -162 3 -197 23 -279 57 -229 152 -399 320
-575 257 -267 603 -411 946 -393 309 17 586 143 802 365 305 314 420 747 312
1170 l-19 76 109 111 c63 63 117 126 126 147 51 124 -31 271 -159 285 -81 10
-131 -12 -216 -93 l-75 -72 -74 80 c-160 173 -360 289 -604 349 -109 27 -338
34 -457 14z m1182 -516 c43 -61 143 -260 154 -303 6 -27 -20 -54 -532 -566
-297 -296 -554 -545 -572 -554 -48 -24 -124 -31 -179 -16 -44 12 -76 40 -351
314 -174 173 -312 318 -325 341 -43 83 -21 200 50 267 61 58 169 75 248 39 24
-11 120 -96 242 -215 140 -136 209 -196 224 -196 16 0 155 132 500 476 265
264 484 474 491 472 7 -2 30 -29 50 -59z"/>
<path d="M2838 1920 c-65 -8 -118 -36 -135 -71 -67 -131 126 -219 283 -129 59
33 83 74 91 156 l6 54 -94 -1 c-52 -1 -119 -5 -151 -9z"/>
<path d="M7303 1920 c-74 -11 -120 -42 -133 -90 -24 -89 36 -142 160 -141 139
0 211 60 226 185 l7 56 -104 -1 c-57 -1 -127 -5 -156 -9z"/>
<path d="M8955 2295 c-61 -16 -119 -76 -139 -144 l-13 -46 215 -3 c118 -1 217
0 220 3 9 9 -31 97 -59 130 -53 60 -138 83 -224 60z"/>
</g>
</svg>
